<svg role="img" viewBox="0 0 25 25" xmlns="http://www.w3.org/2000/svg"><title>Elementor Logo</title><path fill="#1572B6" d="M102.054 12.939C102.054 12.939 100.65 13.2733 99.465 13.5566L97.6605 13.9676C97.6546 13.9676 97.6467 13.9676 97.6447 13.9676C97.6447 13.4818 97.6801 12.9685 97.7961 12.4965C97.9455 11.8907 98.2738 11.1827 98.8419 10.8719C99.4611 10.5336 100.216 10.4943 100.872 10.7559C101.551 11.0253 101.861 11.6803 101.995 12.3588C102.032 12.5476 102.058 12.7384 102.075 12.9311L102.054 12.939ZM106.756 13.9656C106.756 9.25916 103.792 7.23535 100.006 7.23535C95.7242 7.23535 93.043 10.2012 93.043 13.9892C93.043 18.1077 95.3252 20.7903 100.241 20.7903C102.899 20.7903 104.405 20.3203 106.192 19.4254L105.51 16.3415C104.145 16.9532 102.876 17.3288 101.181 17.3288C99.3235 17.3288 98.2639 16.6227 97.8649 15.305H106.638C106.709 14.953 106.756 14.5537 106.756 13.9656Z"></path></svg>